<?xml version="1.0" encoding="UTF-8"?>
<svg xmlns="http://www.w3.org/2000/svg" width="128" height="128" viewBox="0 0 128 128" role="img" aria-labelledby="title">
<title id="title">Shikkha Buddy Open Counter micro symbol</title><path d="M 8 100.67 C 8.9 98.48 12.95 90.77 17.33 90 C 21.72 89.23 49.21 93.05 53.33 92.67 C 57.46 92.28 59.36 87.03 60 86 C 60.64 84.97 60.52 83.03 60 82 C 59.48 80.97 57.76 77.14 54.67 75.33 C 51.57 73.53 31.35 65.01 28 63.33 C 24.65 61.66 21.42 59.42 20 58 C 18.58 56.58 14.11 50.86 13.33 48.67 C 12.56 46.48 11.87 37.4 12 35.33 C 12.13 33.27 13.89 28.75 14.67 27.33 C 15.44 25.92 18.2 21.96 20 20.67 C 21.8 19.38 26.24 14.64 33.33 14 C 40.42 13.36 86.5 13.48 93.33 14 C 100.16 14.52 102.07 17.4 104 19.33 C 105.93 21.27 112.43 31.29 113.33 34 C 114.24 36.71 113.98 44.76 113.33 47.33 C 112.69 49.91 106.67 60.67 106.67 60.67 C 106.67 60.67 114.71 65.66 116 67.33 C 117.29 69.01 119.74 75.42 120 78 C 120.26 80.58 119.96 91.04 118.67 94 C 117.38 96.96 108.73 106.86 106.67 108.67 C 104.6 110.47 101.07 112.15 97.33 112.67 C 93.6 113.18 68 114 68 114 C 68 114 68 110 68 110 C 68 110 72.99 109.01 74.67 107.33 C 76.34 105.66 83.4 94.08 85.33 92.67 C 87.27 91.25 93.25 92.92 94.67 92.67 C 96.08 92.41 99.23 90.77 100 90 C 100.77 89.23 102.67 86.34 102.67 84.67 C 102.67 82.99 102.84 75.5 100 72.67 C 97.16 69.83 73.33 55.33 73.33 55.33 C 73.33 55.33 74.32 51.72 76 51.33 C 77.68 50.95 88.73 51.98 90.67 51.33 C 92.6 50.69 95.48 45.96 96 44.67 C 96.52 43.38 96.77 39.29 96 38 C 95.23 36.71 93.67 31.98 88 31.33 C 82.33 30.69 42.75 30.69 37.33 31.33 C 31.92 31.98 32 38 32 38 C 32 38 33.6 45.01 37.33 47.33 C 41.07 49.65 66.67 59.81 70.67 62 C 74.66 64.19 77.64 68.58 78.67 70 C 79.7 71.42 81.33 74.09 81.33 76.67 C 81.33 79.24 79.83 93.7 78.67 96.67 C 77.51 99.63 71.4 105.79 69.33 107.33 C 67.27 108.88 63.26 112.15 57.33 112.67 C 51.4 113.18 8 112.67 8 112.67 C 8 112.67 7.1 102.86 8 100.67 Z" fill="#1375C9" fill-rule="evenodd" transform="translate(0 0) scale(1)"/></svg>
