<?xml version="1.0" encoding="UTF-8"?>
<svg xmlns="http://www.w3.org/2000/svg" width="876.96" height="136" viewBox="0 0 876.96 136" role="img" aria-labelledby="title">
<title id="title">Shikkha Buddy Open Counter horizontal logo</title><path d="M 14.47 364.44 C 14.67 359.52 18.28 348.34 19.56 345.09 C 20.84 341.84 25.64 333.49 27.71 330.84 C 29.78 328.18 37.99 319.77 40.95 317.6 C 43.9 315.43 53.43 309.62 58.25 308.44 C 63.08 307.26 82.27 304.69 90.84 305.38 C 99.4 306.07 137.29 314.58 146.84 315.56 C 156.38 316.55 183.2 316.45 189.6 315.56 C 196 314.68 209.47 309.06 213.02 306.4 C 216.56 303.74 224.98 291.81 226.25 288.07 C 227.53 284.33 227.24 271.06 226.25 267.71 C 225.27 264.36 230.54 261.92 216.07 253.45 C 201.6 244.99 92.23 189.3 76.58 180.15 C 60.93 170.99 57.63 163.09 54.18 158.76 C 50.74 154.43 42.72 139.48 40.95 135.35 C 39.17 131.21 36.35 120.33 35.85 116 C 35.36 111.67 34.58 96.55 35.85 90.55 C 37.13 84.54 44.96 60.39 49.09 53.89 C 53.22 47.39 71.63 27.97 78.62 23.35 C 85.61 18.72 97.17 7.91 121.38 6.04 C 145.59 4.17 305.17 3.41 329.09 4 C 353.01 4.59 362.11 9.68 368.8 12.15 C 375.49 14.61 392.91 24.63 398.33 29.45 C 403.74 34.28 421.26 55.64 424.8 62.04 C 428.34 68.43 434 90.12 434.98 95.64 C 435.97 101.15 435.57 114.43 434.98 119.05 C 434.39 123.68 431.73 137.59 428.87 143.49 C 426.02 149.4 405.45 180.15 405.45 180.15 C 405.45 180.15 423.52 190.46 427.85 194.4 C 432.19 198.34 446.91 215.46 450.25 220.87 C 453.6 226.29 461 245.09 462.47 250.4 C 463.95 255.71 465.63 270.24 465.53 275.85 C 465.43 281.46 463.03 302.43 461.45 308.44 C 459.88 314.44 451.6 333.44 449.24 337.96 C 446.87 342.49 441.15 351.14 437.02 355.27 C 432.88 359.41 411.98 377.18 406.47 380.73 C 400.96 384.27 384.82 390.45 380 391.93 C 375.18 393.4 368.59 395.61 356.58 396 C 344.57 396.39 255.78 396 255.78 396 C 255.78 396 285.84 373.76 292.44 366.47 C 299.03 359.19 318.09 325.18 324 320.65 C 329.91 316.13 349.2 320.13 353.53 319.64 C 357.86 319.14 365.36 317.53 368.8 315.56 C 372.24 313.6 386.6 301.93 389.16 299.27 C 391.72 296.62 394.39 291.32 395.27 288.07 C 396.16 284.82 399.21 270.5 398.33 265.67 C 397.44 260.85 389.55 242.81 386.11 238.18 C 382.66 233.56 369.58 222.84 362.69 217.82 C 355.8 212.8 322.51 190.88 314.84 186.25 C 307.16 181.63 286.62 172.03 283.27 169.96 C 279.93 167.9 280.42 165.96 280.22 164.87 C 280.02 163.79 280.55 159.75 281.24 158.76 C 281.93 157.78 282.23 155.08 287.35 154.69 C 292.46 154.3 327.88 155.48 334.18 154.69 C 340.48 153.9 349.85 148.22 352.51 146.55 C 355.17 144.87 360.1 139.74 361.67 137.38 C 363.25 135.02 368.31 126.24 368.8 122.11 C 369.29 117.98 368.44 99.05 366.76 94.62 C 365.09 90.19 355.43 78.75 351.49 76.29 C 347.55 73.83 346.8 69.75 326.04 69.16 C 305.27 68.57 156.83 69.1 136.65 70.18 C 116.48 71.26 119.87 78.1 117.31 80.36 C 114.75 82.63 110.87 90.75 110.18 93.6 C 109.49 96.45 109.3 106.94 110.18 109.89 C 111.07 112.84 104.88 116.17 119.35 124.15 C 133.81 132.12 244.6 184.59 259.85 192.36 C 275.11 200.14 273.52 201.04 277.16 204.58 C 280.81 208.13 294.77 224.88 297.53 229.02 C 300.28 233.15 304.49 242.72 305.67 247.35 C 306.85 251.97 310.14 269.88 309.75 276.87 C 309.35 283.86 303.67 313.14 301.6 319.64 C 299.53 326.13 291.91 339.35 288.36 344.07 C 284.82 348.8 270.06 364.47 264.95 368.51 C 259.83 372.54 241.32 383.26 235.42 385.82 C 229.51 388.38 224.92 394 203.85 394.98 C 182.79 395.97 17.53 396 17.53 396 C 17.53 396 14.28 369.36 14.47 364.44 Z" fill="#1375C9" fill-rule="evenodd" transform="translate(0 8) scale(0.29)"/><g transform="translate(160 12) scale(0.84)"><path d="M 62 8 C 52 2 41 0 30 0 C 12 0 2 10 2 25 C 2 39 10 46 28 53 L 42 59 C 52 63 56 68 56 76 C 56 84 49 90 38 90 C 25 90 15 84 6 76 L 0 88 C 10 98 23 104 38 104 C 58 104 71 93 71 76 C 71 61 62 52 44 45 L 30 40 C 20 36 16 32 16 25 C 16 18 22 13 31 13 C 41 13 50 16 57 21 Z" fill="#0F2B5B" fill-rule="evenodd" transform="translate(0 0)"/><path d="M 0 0 H 14 V 42 C 21 32 31 27 42 27 C 57 27 64 37 64 54 V 100 H 50 V 57 C 50 46 45 40 36 40 C 24 40 14 49 14 63 V 100 H 0 Z" fill="#0F2B5B" fill-rule="evenodd" transform="translate(80 0)"/><path d="M 3 29 H 17 V 100 H 3 Z M 10 4 C 16 4 19 7 19 12 C 19 18 16 21 10 21 C 4 21 1 18 1 12 C 1 7 4 4 10 4 Z" fill="#0F2B5B" fill-rule="evenodd" transform="translate(152 0)"/><path d="M 0 0 H 14 V 60 L 40 29 H 58 L 31 60 L 61 100 H 43 L 21 69 L 14 77 V 100 H 0 Z" fill="#0F2B5B" fill-rule="evenodd" transform="translate(180 0)"/><path d="M 0 0 H 14 V 60 L 40 29 H 58 L 31 60 L 61 100 H 43 L 21 69 L 14 77 V 100 H 0 Z" fill="#0F2B5B" fill-rule="evenodd" transform="translate(250 0)"/><path d="M 0 0 H 14 V 42 C 21 32 31 27 42 27 C 57 27 64 37 64 54 V 100 H 50 V 57 C 50 46 45 40 36 40 C 24 40 14 49 14 63 V 100 H 0 Z" fill="#0F2B5B" fill-rule="evenodd" transform="translate(320 0)"/><path d="M 28 27 C 45 27 58 37 58 53 V 100 H 44 V 90 C 39 98 30 103 20 103 C 7 103 0 94 0 82 C 0 68 11 59 28 59 H 44 V 54 C 44 44 38 39 28 39 C 19 39 11 42 5 47 L 1 36 C 9 30 18 27 28 27 Z M 27 71 C 18 71 14 75 14 81 C 14 88 18 91 24 91 C 35 91 44 83 44 74 V 71 Z" fill="#0F2B5B" fill-rule="evenodd" transform="translate(392 0)"/><path d="M 0 0 H 34 C 57 0 69 9 69 27 C 69 38 63 45 53 49 C 65 53 72 62 72 75 C 72 93 59 103 35 103 H 0 Z M 14 13 V 43 H 33 C 47 43 55 38 55 28 C 55 18 48 13 33 13 Z M 14 56 V 90 H 34 C 50 90 58 84 58 73 C 58 62 50 56 34 56 Z" fill="#0F2B5B" fill-rule="evenodd" transform="translate(488 0)"/><path d="M 0 29 H 14 V 73 C 14 84 19 90 29 90 C 40 90 47 81 47 68 V 29 H 61 V 100 H 47 V 89 C 41 98 33 103 22 103 C 7 103 0 93 0 76 Z" fill="#0F2B5B" fill-rule="evenodd" transform="translate(570 0)"/><path d="M 47 0 H 61 V 100 H 47 V 89 C 42 98 33 103 22 103 C 7 103 0 90 0 65 C 0 41 8 27 24 27 C 34 27 42 32 47 41 Z M 30 40 C 19 40 14 48 14 65 C 14 82 19 90 30 90 C 41 90 47 81 47 65 C 47 49 41 40 30 40 Z" fill="#0F2B5B" fill-rule="evenodd" transform="translate(640 0)"/><path d="M 47 0 H 61 V 100 H 47 V 89 C 42 98 33 103 22 103 C 7 103 0 90 0 65 C 0 41 8 27 24 27 C 34 27 42 32 47 41 Z M 30 40 C 19 40 14 48 14 65 C 14 82 19 90 30 90 C 41 90 47 81 47 65 C 47 49 41 40 30 40 Z" fill="#0F2B5B" fill-rule="evenodd" transform="translate(710 0)"/><path d="M 0 29 H 15 L 34 82 L 49 29 H 64 L 36 111 C 32 123 26 130 15 130 C 10 130 6 129 2 127 L 5 115 C 8 117 11 117 14 117 C 19 117 22 114 24 108 L 26 102 Z" fill="#0F2B5B" fill-rule="evenodd" transform="translate(780 0)"/></g></svg>
