<?xml version="1.0" encoding="utf-8" ?><svg xmlns="http://www.w3.org/2000/svg" xmlns:xlink="http://www.w3.org/1999/xlink" width="4096" height="4096" viewBox="0 0 4096 4096"><path fill="#1375C9" d="M249.295 1441.05C267.291 1445.04 295.323 1464.24 313.261 1474.59C373.394 1509.3 429.423 1530.66 498.856 1539.97C559.271 1548.34 610.762 1508.68 668.64 1493.9C786.137 1463.91 899.334 1461.74 1017.36 1490.2C1068.63 1502.57 1142.21 1542.93 1190.73 1540.22C1192.93 1540.1 1195.13 1539.92 1197.32 1539.67C1266.83 1531.8 1340.81 1498.55 1402.26 1465.63C1416.09 1458.23 1439.23 1435.17 1452.12 1447.61C1456.24 1458.99 1454.18 1479.89 1454.1 1492.89C1453.59 1575.08 1434.17 1644.53 1399.76 1718.32C1415.41 1744.74 1428.15 1768.99 1441.69 1796.39C1519.58 1954.07 1481.93 2135.3 1351.73 2251.21C1247.01 2335.86 1110.32 2360.72 985.953 2307.95C973.303 2302.58 962.716 2297.74 951.168 2290.29C939.702 2304.26 923.197 2331.02 912.449 2346.74C893.537 2374.45 872.711 2400.81 850.124 2425.61C814.381 2394.04 772.845 2326.32 745.834 2284.98C655.521 2354.55 526.954 2342.48 429.384 2298.08C338.937 2256.93 275.79 2187.18 241.604 2094.55C206.465 1997.37 211.775 1890.16 256.343 1796.92C268.095 1771.73 288.035 1743.51 296.636 1724.33L298.159 1720.85C280.402 1683.93 262.567 1637.12 253.408 1597.73C245.058 1561.81 229.156 1473.65 249.295 1441.05ZM564.509 1700.87C502.813 1704.93 466.541 1714 414.616 1751.12C271.391 1853.49 263.726 2066.5 394.744 2183.75C514.748 2291.14 697.36 2274.73 799.894 2150.43C819.913 2126.38 833.257 2105.27 848.044 2077.32C893.619 2154.45 950.363 2218.92 1041.19 2242.27C1086.68 2254.36 1134.33 2255.82 1180.47 2246.53C1429.79 2187.4 1472.68 1865.59 1258.57 1737.78C1197.5 1701.94 1124.82 1691.49 1056.12 1708.66C939.498 1738.32 887.947 1827.65 848.569 1933.21C827.903 1876.86 808.176 1832.67 766.104 1787.71C713.097 1731.06 642.445 1699.44 564.509 1700.87Z"/><path fill="#1375C9" d="M562.974 1814.91C614.651 1812.22 653.434 1827.06 693.393 1860.02C679.333 1860.4 666.25 1861.53 652.726 1865.71C602.787 1881.15 575.195 1938.42 593.991 1987.61C602.851 2011.08 620.923 2029.91 644.011 2039.72C673.15 2052.02 697.57 2048.81 725.63 2037.57C705.429 2071.88 692.448 2092.35 658.881 2114.08C598.27 2147.62 534.182 2151.78 477.589 2106.92C443.129 2079.86 420.968 2040.1 416.073 1996.56C405.082 1900.38 467.057 1824.87 562.974 1814.91Z"/><path fill="#1375C9" d="M1112.87 1816.87C1186.01 1815.73 1246.73 1848.7 1273.59 1918.93C1288.69 1959.1 1287.29 2003.62 1269.69 2042.76C1230.97 2128.95 1143.54 2161.72 1057.48 2123.17C1015.73 2103.05 994.77 2077.07 971.332 2037.52C982.903 2040.64 998.223 2044.9 1010.06 2046.33C1032.88 2049.09 1055.85 2042.52 1073.75 2028.1C1113.83 1995.87 1120.25 1933.4 1084.46 1895.18C1058.79 1867.76 1040.19 1863.63 1005.01 1861.4C1045.23 1830.91 1063.83 1823.92 1112.87 1816.87Z"/><path fill="#1375C9" d="M1652.47 2056.73C1724.89 2056.32 1797.23 2055.58 1869.64 2057.16C1995.81 2059.92 2050.01 2183.44 1946.72 2267.43C2012.02 2305.8 2035.21 2368.24 1999.67 2436.74C1953.76 2516.04 1866.79 2506.93 1787.94 2506.65L1653.47 2506.06C1652.55 2399.95 1652.23 2293.84 1652.52 2187.73C1652.44 2161.22 1649.32 2076.26 1652.47 2056.73ZM1741.6 2429.36C1789.77 2428.93 1860.13 2436.67 1900.18 2414.45C1915.57 2402.01 1918.98 2391.43 1920.63 2371.93C1924.3 2328.78 1881.29 2313.86 1845.04 2313.57C1811.28 2313.3 1774.46 2312.25 1740.16 2314.15L1741.6 2429.36ZM1740.36 2244.07C1787.82 2244.23 1852.63 2251.32 1891.41 2224.27C1928.92 2185.15 1907.32 2148.11 1859.21 2136.21C1824.45 2127.61 1777.17 2130.93 1740.75 2132.1C1739.91 2167.67 1739.62 2208.38 1740.36 2244.07Z"/><path fill="#1375C9" d="M2994.94 2054.89C3022.82 2054.7 3051.9 2054.11 3079.65 2055.1C3081.07 2103.93 3079.95 2159.07 3080.04 2208.36C3079.91 2309.25 3080.53 2410.15 3081.91 2511.03C3054.72 2511.28 3027.52 2511.2 3000.33 2510.77L3000.18 2475.31C2982.35 2489.88 2976.77 2497.43 2954.48 2507.25C2921.28 2522.26 2883.46 2523.42 2849.4 2510.46C2798.74 2491.52 2763.7 2430.45 2755.17 2379.46C2740.99 2294.67 2782 2183 2877.36 2169.19C2923.63 2162.49 2952.71 2177.5 2989.12 2203.62C2991.02 2159.16 2986.18 2105.86 2989.38 2060.83C2989.66 2056.97 2990.84 2057.49 2994.94 2054.89ZM2932.59 2439.69C3032.42 2405.53 3012.5 2228.42 2902.36 2244.68C2806.53 2274.83 2831.21 2458.87 2932.59 2439.69Z"/><path fill="#1375C9" d="M2634.36 2054.66C2661.11 2053.62 2694.23 2054.09 2720.98 2054.96L2720.14 2507.16C2705.23 2507.98 2654.7 2508.76 2641.78 2506.37C2634.19 2498.29 2636.24 2484.26 2636.38 2472.92C2587.63 2515.53 2548.14 2531.71 2484.51 2507.23C2442.8 2487.6 2415.75 2456.3 2402.07 2411.95C2376.22 2328.15 2397.86 2201.89 2494.02 2173.61C2548.38 2157.63 2585.7 2178.54 2631.99 2203.61C2632.38 2181.87 2630.03 2066.23 2634.36 2054.66ZM2571.99 2439.84C2598.6 2430.56 2615.68 2419.74 2627.8 2392.95C2655.17 2332.42 2631.08 2238.13 2551.58 2240.61C2443.21 2270.59 2464.09 2455.95 2571.99 2439.84Z"/><path fill="#1375C9" d="M1812.38 1489.07C1868.65 1486.29 1918.27 1496.58 1963.9 1532.17C2000.69 1560.86 2005.87 1592.34 2010.42 1635.42C1986.97 1636.87 1947.52 1635.46 1923.22 1634.72C1916.67 1620.94 1913.09 1612.3 1902.3 1600.71C1882.95 1580.3 1856.3 1568.4 1828.2 1567.62C1805.29 1566.81 1779.13 1572.59 1762.08 1588.6C1753.9 1596.27 1747.34 1611.4 1748.45 1621.09C1754.54 1673.75 1894.57 1684.59 1936.26 1704.36C1955.65 1711.8 1973.53 1721.25 1988.69 1736.01C2035.68 1781.76 2033.5 1865.95 1986.75 1911.2C1941.02 1955.46 1888.55 1965.23 1827.5 1965.26C1745.04 1960.16 1664.38 1936.47 1644.76 1843.37C1642.46 1832.45 1639.14 1822.09 1640.82 1810.8C1647.85 1804.99 1718.41 1807.15 1732.83 1807.16C1735.91 1829.46 1743.26 1850.13 1761.47 1864.57C1788.55 1886.03 1824.04 1891.48 1857.59 1888.11C1882.77 1885.58 1905.61 1875.74 1921.38 1855.71C1927.57 1847.87 1936.67 1831.88 1933.77 1822.13C1919.72 1774.8 1813.25 1766.11 1772.01 1750.52C1744.18 1739.99 1729.76 1737.33 1706.5 1720.81C1682.47 1703.74 1662.65 1677.21 1659.34 1648.81C1655.15 1612.88 1660.09 1579.92 1682.65 1551.33C1716.83 1508.04 1760.99 1496.45 1812.38 1489.07Z"/><path fill="#1375C9" d="M3744.57 1608.92C3783.55 1607.2 3819.34 1611.11 3854.01 1630.38C3908.19 1660.49 3901.28 1709.55 3903.17 1761.23C3905.4 1821.95 3895.99 1895.01 3912.15 1953.41C3885.46 1954.5 3854.63 1953.89 3827.62 1953.95L3826.42 1923.55C3773.39 1951.77 3743.76 1974.6 3678.36 1958.35C3648.97 1951.05 3625.24 1932.27 3609.89 1906.05C3603.44 1893.62 3600.13 1881.08 3598.72 1867.17C3585.72 1738.98 3779.93 1773.83 3813.83 1727.82C3817.36 1723.03 3818.69 1717.6 3817.14 1711.8C3814.21 1700.83 3802.05 1688.13 3791.93 1683.35C3772.77 1674.3 3745.15 1675.62 3725.82 1683.42C3707.55 1690.79 3701.13 1704.58 3693.93 1721.64C3666.05 1721.43 3637.52 1722.55 3609.59 1723.35C3616.83 1643.78 3675.03 1618.89 3744.57 1608.92ZM3704.51 1890.26C3742.9 1908.78 3792.96 1898.36 3810.66 1856.62C3818.15 1838.57 3820.07 1818.69 3816.18 1799.54L3812.98 1796.21L3806.14 1796.63C3769.72 1803.14 3715.37 1804.32 3692.25 1835.25C3677.57 1854.89 3683.4 1878.4 3704.51 1890.26Z"/><path fill="#1375C9" d="M3252.44 1495.54C3282.18 1494.73 3314.98 1495.41 3344.96 1495.4L3344.73 1652.75C3375.74 1631.73 3407.93 1611.09 3446.53 1610C3477.48 1609 3507.5 1620.69 3529.62 1642.36C3566.62 1678.27 3565.33 1720.41 3564.95 1767.94C3564.46 1830.25 3566.73 1892.54 3567.25 1954.82C3539.19 1956.04 3503.55 1955.64 3475.34 1954.97L3475.62 1821C3475.83 1795.76 3477.06 1769.65 3474.28 1744.61C3466.31 1673.05 3381.46 1673.05 3347.74 1724.84C3347.47 1752.94 3345.09 1781.4 3344.72 1809.25C3344.07 1857.64 3344.13 1906.35 3344.01 1954.75C3314.93 1955.24 3284.37 1954.74 3255.16 1954.72C3255.25 1803.73 3250.18 1645.43 3252.44 1495.54Z"/><path fill="#1375C9" d="M2056.88 1495.79C2083.16 1494.13 2123.34 1495.27 2150.68 1495.17C2150.2 1546.71 2150.33 1598.26 2151.08 1649.79C2183.8 1630.16 2211.09 1611.15 2250.29 1610.23C2281.51 1609.49 2310.72 1618.79 2333.51 1640.83C2346.92 1653.8 2356.65 1670.1 2361.7 1688.07C2371.17 1721.86 2368.68 1779.45 2368.7 1816.02L2368.66 1954.53C2339.23 1954.69 2309.8 1954.63 2280.37 1954.37L2280.09 1811C2280.06 1766.45 2281.44 1688.99 2218.78 1687.31C2199.71 1686.91 2181.32 1694.38 2167.93 1707.97C2159.49 1716.57 2151.61 1731.04 2150.29 1742.86C2142.69 1810.82 2146.27 1887.09 2146.72 1955.39C2120.16 1956.37 2085.85 1955.92 2059.18 1955.11C2058.28 1803.82 2054.11 1646.75 2056.88 1495.79Z"/><path fill="#1375C9" d="M2908.61 1494.66C2933.22 1493 2972.67 1494.56 2998.37 1494.81C2998.62 1574.38 2997.1 1658.9 2999.56 1738.03C3032.6 1712.47 3076.49 1653.59 3115.37 1619.63L3219.73 1618.43C3184.57 1657.83 3136.48 1706.56 3098.64 1743.47C3133.18 1793.09 3165.39 1847.43 3197.24 1898.99C3208.11 1917.35 3220.58 1936.17 3232.12 1954.22C3197.36 1955.21 3159.09 1954.5 3124.05 1954.59C3091.58 1907.15 3066.51 1855.86 3031.47 1807.12C3019.3 1821.13 3009.36 1833.47 2998.06 1848.19C2995.4 1872.63 2997.04 1929.16 2997.13 1955.26L2908.97 1954.99C2906.65 1895.86 2907.69 1825.58 2907.77 1766.09L2908.61 1494.66Z"/><path fill="#1375C9" d="M2639.73 1494.97C2641.8 1495.03 2644.62 1495.84 2646.77 1496.32C2650.2 1502.05 2649.1 1713.84 2650.41 1741.89C2691.71 1701.49 2723.63 1659.56 2769.25 1619.01C2803.75 1618.82 2839.12 1618.22 2873.52 1619.38C2865.25 1630.24 2845.71 1648.82 2835.62 1658.92C2807.18 1687.4 2777.99 1715.01 2749.81 1743.82C2791.81 1810.64 2838.01 1876.02 2878.44 1943.91C2880.5 1950.06 2880.78 1947.16 2878.94 1952.82C2867.28 1958.42 2793.91 1955.71 2776.37 1955.22C2749.42 1914.71 2713.46 1848.98 2687.81 1805.49C2675.62 1818.62 2663.07 1833.41 2651.14 1846.94C2651.61 1882.71 2651.6 1918.49 2651.12 1954.26C2621.55 1954.39 2591.99 1954.23 2562.42 1953.81C2561.19 1936.56 2562.01 1905.53 2561.97 1887.31L2561.72 1757.78C2561.55 1675.33 2558.28 1576.85 2561.09 1495.69L2639.73 1494.97Z"/><path fill="#1375C9" d="M3110.17 2174.33C3130.21 2173.13 3179.44 2174.33 3199.24 2175.32C3206.54 2192.3 3214.95 2223.36 3221.32 2241.99C3239.36 2294.79 3255.67 2351.81 3276.35 2403.47C3295.67 2328.76 3320.23 2249.82 3341.64 2175.18C3366.95 2173.17 3406.47 2174.88 3432.33 2175.33C3411.43 2252.05 3380.99 2337.53 3355.8 2413.58C3354.3 2421.11 3343.42 2454.14 3340.54 2462.15C3324.72 2506.21 3312.53 2560.08 3278.39 2593.71C3239.98 2631.53 3194.41 2627.22 3145 2626.94C3144.39 2603.99 3144.36 2581.03 3144.93 2558.08C3269.28 2554.76 3208.89 2487.07 3190.65 2420.88C3178.22 2375.76 3107.11 2207.23 3110.17 2174.33Z"/><path fill="#1375C9" d="M2053.89 2176.49C2082.89 2175.84 2111.91 2175.69 2140.93 2176.06C2140.25 2221.32 2129.71 2394.66 2161.2 2425.99C2171 2435.74 2185.41 2439.39 2198.9 2439.1C2216.17 2438.73 2233.06 2432.17 2244.89 2419.36C2253.49 2410.06 2258.15 2398.87 2260.88 2386.65C2270.45 2343.72 2262.09 2244.96 2261.09 2196.95C2260.63 2189.75 2259.77 2186.64 2262.81 2180.08C2270.97 2174.36 2336.97 2177.51 2353.26 2176.34L2355.38 2176.17C2355.23 2283.28 2354.25 2401.55 2359.23 2508.06L2273.52 2508.14L2266.38 2477.28C2194.56 2539.36 2080.53 2533.34 2058.25 2427.29C2050.04 2388.23 2053.73 2330.81 2053.24 2289.68C2052.82 2253.76 2051.81 2211.96 2053.89 2176.49Z"/><path fill="#1375C9" d="M2418.67 1617.97C2445.24 1619.69 2476.5 1619.1 2503.49 1619.17C2504 1634.66 2503.95 1651.02 2503.76 1666.52C2502.59 1761.48 2505.73 1856.95 2504.82 1951.84C2477.55 1952.83 2445.91 1952.14 2418.3 1952.21C2414.63 1871.95 2420.81 1787.22 2418.27 1706.56C2417.41 1679.32 2416.76 1644.95 2418.67 1617.97Z"/><path fill="#1375C9" d="M2417.07 1496.2C2444.96 1495.08 2475.51 1495.68 2503.64 1495.74C2503.91 1519.6 2504.8 1552.42 2502.86 1575.62C2475.17 1576.51 2445.16 1575.97 2417.28 1575.96C2416.17 1551.13 2416.43 1521.01 2417.07 1496.2Z"/><path fill="#FEFEFF" fill-opacity="0.011764706" d="M2261.09 2196.95C2259.52 2194.89 2258.96 2194.37 2257.82 2191.75C2255.8 2187.01 2255.74 2181.66 2257.65 2176.87C2267.47 2166.65 2344.61 2166.14 2354.61 2171.19L2355.38 2176.17L2353.26 2176.34C2336.97 2177.51 2270.97 2174.36 2262.81 2180.08C2259.77 2186.64 2260.63 2189.75 2261.09 2196.95Z"/></svg>
